<svg width="22" height="22" viewBox="0 0 22 22" fill="none" xmlns="http://www.w3.org/2000/svg">
<path d="M11.0007 0.582031C13.8309 0.582031 14.184 0.592448 15.2944 0.644531C16.4038 0.696615 17.159 0.870573 17.8236 1.12891C18.5111 1.39349 19.0902 1.75182 19.6694 2.32995C20.1991 2.85067 20.6089 3.48056 20.8704 4.17578C21.1277 4.83932 21.3027 5.59557 21.3548 6.70495C21.4038 7.81536 21.4173 8.16849 21.4173 10.9987C21.4173 13.8289 21.4069 14.182 21.3548 15.2924C21.3027 16.4018 21.1277 17.157 20.8704 17.8216C20.6097 18.5172 20.1997 19.1473 19.6694 19.6674C19.1485 20.1969 18.5187 20.6068 17.8236 20.8685C17.16 21.1258 16.4038 21.3008 15.2944 21.3529C14.184 21.4018 13.8309 21.4154 11.0007 21.4154C8.17044 21.4154 7.81732 21.4049 6.7069 21.3529C5.59753 21.3008 4.84232 21.1258 4.17773 20.8685C3.48224 20.6075 2.85224 20.1976 2.3319 19.6674C1.80212 19.1468 1.39225 18.5169 1.13086 17.8216C0.872526 17.1581 0.698568 16.4018 0.646484 15.2924C0.597526 14.182 0.583984 13.8289 0.583984 10.9987C0.583984 8.16849 0.594401 7.81536 0.646484 6.70495C0.698568 5.59453 0.872526 4.84036 1.13086 4.17578C1.39152 3.48013 1.80149 2.85007 2.3319 2.32995C2.85239 1.79998 3.48235 1.39008 4.17773 1.12891C4.84232 0.870573 5.59648 0.696615 6.7069 0.644531C7.81732 0.595573 8.17044 0.582031 11.0007 0.582031ZM11.0007 5.79037C9.61932 5.79037 8.29456 6.3391 7.3178 7.31585C6.34105 8.2926 5.79232 9.61736 5.79232 10.9987C5.79232 12.38 6.34105 13.7048 7.3178 14.6815C8.29456 15.6583 9.61932 16.207 11.0007 16.207C12.382 16.207 13.7067 15.6583 14.6835 14.6815C15.6603 13.7048 16.209 12.38 16.209 10.9987C16.209 9.61736 15.6603 8.2926 14.6835 7.31585C13.7067 6.3391 12.382 5.79037 11.0007 5.79037ZM17.7715 5.52995C17.7715 5.18461 17.6343 4.85342 17.3901 4.60924C17.1459 4.36505 16.8147 4.22786 16.4694 4.22786C16.1241 4.22786 15.7929 4.36505 15.5487 4.60924C15.3045 4.85342 15.1673 5.18461 15.1673 5.52995C15.1673 5.87528 15.3045 6.20647 15.5487 6.45066C15.7929 6.69485 16.1241 6.83203 16.4694 6.83203C16.8147 6.83203 17.1459 6.69485 17.3901 6.45066C17.6343 6.20647 17.7715 5.87528 17.7715 5.52995ZM11.0007 7.8737C11.8295 7.8737 12.6243 8.20294 13.2104 8.78899C13.7964 9.37504 14.1257 10.1699 14.1257 10.9987C14.1257 11.8275 13.7964 12.6224 13.2104 13.2084C12.6243 13.7945 11.8295 14.1237 11.0007 14.1237C10.1719 14.1237 9.37699 13.7945 8.79094 13.2084C8.20489 12.6224 7.87565 11.8275 7.87565 10.9987C7.87565 10.1699 8.20489 9.37504 8.79094 8.78899C9.37699 8.20294 10.1719 7.8737 11.0007 7.8737Z" fill="#FFF2D6"/>
</svg>
