<svg width="21" height="20" viewBox="0 0 21 20" fill="none" xmlns="http://www.w3.org/2000/svg">
<path d="M4.72917 2.70742C4.72889 3.25996 4.50913 3.78975 4.11824 4.18026C3.72734 4.57076 3.19733 4.78999 2.64479 4.78971C2.09226 4.78944 1.56246 4.56968 1.17196 4.17878C0.781452 3.78789 0.562224 3.25787 0.5625 2.70534C0.562777 2.1528 0.782535 1.62301 1.17343 1.2325C1.56433 0.841999 2.09434 0.622771 2.64688 0.623047C3.19941 0.623323 3.7292 0.843082 4.11971 1.23398C4.51022 1.62487 4.72944 2.15489 4.72917 2.70742ZM4.79167 6.33242H0.625V19.3741H4.79167V6.33242ZM11.375 6.33242H7.22917V19.3741H11.3333V12.5303C11.3333 8.71784 16.3021 8.36367 16.3021 12.5303V19.3741H20.4167V11.1137C20.4167 4.68659 13.0625 4.92617 11.3333 8.08242L11.375 6.33242Z" fill="#FFF2D6"/>
</svg>
