<svg width="22" height="18" viewBox="0 0 22 18" fill="none" xmlns="http://www.w3.org/2000/svg">
<path d="M21.5858 2.39122C20.7906 2.74299 19.9472 2.97401 19.0837 3.07664C19.9939 2.5323 20.6751 1.67561 21.0004 0.666224C20.1462 1.17456 19.2098 1.53081 18.2337 1.72352C17.5781 1.02204 16.7091 0.556811 15.7618 0.400166C14.8145 0.243522 13.842 0.404235 12.9955 0.857321C12.1489 1.31041 11.4758 2.03048 11.0807 2.90559C10.6856 3.7807 10.5908 4.76183 10.8108 5.69643C9.07863 5.60961 7.38407 5.15948 5.83715 4.37525C4.29023 3.59102 2.92552 2.49023 1.83164 1.14435C1.44444 1.8094 1.24097 2.56542 1.24206 3.33497C1.24206 4.84539 2.01081 6.17977 3.17956 6.96102C2.4879 6.93924 1.81147 6.75245 1.20664 6.41622V6.47039C1.20685 7.47633 1.55494 8.45124 2.1919 9.22983C2.82886 10.0084 3.71548 10.5428 4.70143 10.7423C4.05936 10.9163 3.38613 10.9419 2.73268 10.8173C3.01067 11.6831 3.55248 12.4404 4.28226 12.983C5.01203 13.5256 5.89323 13.8264 6.80247 13.8433C5.89881 14.553 4.86412 15.0777 3.75756 15.3872C2.651 15.6968 1.49427 15.7852 0.353516 15.6475C2.34487 16.9281 4.66299 17.608 7.0306 17.6058C15.0441 17.6058 19.4264 10.9673 19.4264 5.20997C19.4264 5.02247 19.4212 4.83289 19.4129 4.64747C20.2659 4.03098 21.0021 3.26729 21.5869 2.39227L21.5858 2.39122Z" fill="#FFF2D6"/>
</svg>
