<svg width="22" height="18" viewBox="0 0 22 18" fill="none" xmlns="http://www.w3.org/2000/svg">
<path d="M20.9413 3.27005C21.4173 5.1263 21.4173 9.0013 21.4173 9.0013C21.4173 9.0013 21.4173 12.8763 20.9413 14.7326C20.6767 15.7586 19.9027 16.5659 18.9225 16.8388C17.1423 17.3346 11.0007 17.3346 11.0007 17.3346C11.0007 17.3346 4.86211 17.3346 3.07878 16.8388C2.0944 16.5617 1.32148 15.7555 1.06003 14.7326C0.583984 12.8763 0.583984 9.0013 0.583984 9.0013C0.583984 9.0013 0.583984 5.1263 1.06003 3.27005C1.32461 2.24401 2.09857 1.43672 3.07878 1.1638C4.86211 0.667969 11.0007 0.667969 11.0007 0.667969C11.0007 0.667969 17.1423 0.667969 18.9225 1.1638C19.9069 1.44089 20.6798 2.24714 20.9413 3.27005ZM8.91732 12.6471L15.1673 9.0013L8.91732 5.35547V12.6471Z" fill="#FFF2D6"/>
</svg>
